<!--! Game Master Engine brand asset. Game Master Engine is built upon the Godot Engine core.--><svg xmlns="http://www.w3.org/2000/svg" width="16" height="16" viewBox="0 0 512 512"><g transform="translate(-80.5 -32.522)scale(1.31445)"><path fill="#fff" stroke="#6e4a10" stroke-linejoin="round" stroke-width="6" d="M196 120 Q194 120 194 123 L194 166 Q194 172 200 172 L312 172 Q318 172 318 166 L318 123 Q318 120 316 120 Z"/><path fill="#fff" stroke="#6e4a10" stroke-linejoin="round" stroke-width="6" d="M206 122 222 78 238 120ZM240 120 256 58 272 120ZM274 122 290 78 306 120Z"/><circle cx="222" cy="72" r="9" fill="#fff" stroke="#6e4a10" stroke-width="4"/><circle cx="256" cy="52" r="9" fill="#fff" stroke="#6e4a10" stroke-width="4"/><circle cx="290" cy="72" r="9" fill="#fff" stroke="#6e4a10" stroke-width="4"/><g fill="#fff"><rect width="190.08" height="92.4" x="160.96" y="244.56" rx="46.2"/><circle cx="199.24" cy="321.12" r="40.92"/><circle cx="312.76" cy="321.12" r="40.92"/></g><g fill="#0a0d16"><rect width="36.96" height="13.2" x="196.6" y="278.88" rx="6.6"/><rect width="13.2" height="36.96" x="208.48" y="267" rx="6.6"/></g><g fill="#0a0d16"><circle cx="323.32" cy="292.08" r="9.24"/><circle cx="304.84" cy="276.24" r="9.24"/><circle cx="286.36" cy="292.08" r="9.24"/><circle cx="304.84" cy="307.92" r="9.24"/></g></g></svg>
