<!--! Game Master Engine brand asset. Game Master Engine is built upon the Godot Engine core.--><svg xmlns="http://www.w3.org/2000/svg" xmlns:xlink="http://www.w3.org/1999/xlink" width="64" height="64" viewBox="0 0 64 64"><defs><linearGradient id="a" x1="0" x2="0" y1="0" y2="512" gradientUnits="userSpaceOnUse"><stop offset="0" stop-color="#ffefb8"/><stop offset=".38" stop-color="#f2c14e"/><stop offset=".72" stop-color="#d9a62f"/><stop offset="1" stop-color="#b4831f"/></linearGradient><linearGradient id="b" x1="0" x2="0" y1="0" y2="512" gradientUnits="userSpaceOnUse"><stop offset="0" stop-color="#33425f"/><stop offset="1" stop-color="#0a0e1b"/></linearGradient></defs><path fill="#fff" d="M14 3.5 h25 l11 11 v45 a2 2 0 0 1 -2 2 H14 a2 2 0 0 1 -2 -2 V5.5 a2 2 0 0 1 2 -2 z"/><path fill="#b9bfc7" d="M39 3.5 l11 11 h-9 a2 2 0 0 1 -2 -2 z"/><g transform="translate(8.514 15.162)scale(.08784)"><path fill="url(#a)" stroke="#6e4a10" stroke-linejoin="round" stroke-width="6" d="M196 120 Q194 120 194 123 L194 166 Q194 172 200 172 L312 172 Q318 172 318 166 L318 123 Q318 120 316 120 Z"/><path fill="url(#a)" stroke="#6e4a10" stroke-linejoin="round" stroke-width="6" d="M206 122 L222 78 L238 120 Z"/><path fill="url(#a)" stroke="#6e4a10" stroke-linejoin="round" stroke-width="6" d="M240 120 L256 58 L272 120 Z"/><path fill="url(#a)" stroke="#6e4a10" stroke-linejoin="round" stroke-width="6" d="M274 122 L290 78 L306 120 Z"/><circle cx="222" cy="72" r="9" fill="url(#a)" stroke="#6e4a10" stroke-width="4"/><circle cx="256" cy="52" r="9" fill="url(#a)" stroke="#6e4a10" stroke-width="4"/><circle cx="290" cy="72" r="9" fill="url(#a)" stroke="#6e4a10" stroke-width="4"/><path fill="url(#b)" stroke="#0a0d16" stroke-linejoin="round" stroke-width="18" d="M150 200 Q150 168 182 168 L330 168 Q362 168 362 200 L362 282 C362 344 314 388 256 412 C198 388 150 344 150 282 Z"/><path fill="url(#b)" stroke="url(#a)" stroke-linejoin="round" stroke-width="14" d="M150 200 Q150 168 182 168 L330 168 Q362 168 362 200 L362 282 C362 344 314 388 256 412 C198 388 150 344 150 282 Z"/><path fill="none" stroke="#fff" stroke-opacity=".14" stroke-width="3" d="M166 210 Q166 184 190 184 L322 184 Q346 184 346 210 L346 282 C346 336 306 374 256 396 C206 374 166 336 166 282 Z"/><g fill="url(#a)"><rect width="144" height="70" x="184" y="240" rx="35"/><circle cx="213" cy="298" r="31"/><circle cx="299" cy="298" r="31"/></g><g fill="#0a0d16"><rect width="28" height="10" x="211" y="266" rx="5"/><rect width="10" height="28" x="220" y="257" rx="5"/></g><g fill="#0a0d16"><circle cx="307" cy="276" r="7"/><circle cx="293" cy="264" r="7"/><circle cx="279" cy="276" r="7"/><circle cx="293" cy="288" r="7"/></g></g></svg>
