<svg xmlns="http://www.w3.org/2000/svg" width="168" height="24" viewBox="0 0 168 24" role="img" aria-label="Game Master">
<g transform="translate(1.00 0.96) scale(0.34500)">
<polygon points="32.00,1.92 39.52,18.97 58.05,16.96 47.04,32.00 58.05,47.04 39.52,45.03 32.00,62.08 24.48,45.03 5.95,47.04 16.96,32.00 5.95,16.96 24.48,18.97" fill="#c9a24a" stroke="#8a6f2e" stroke-width="0.90" stroke-linejoin="round"/>
<circle cx="32.00" cy="1.92" r="3.33" fill="#c9a24a"/>
<circle cx="58.05" cy="16.96" r="3.33" fill="#c9a24a"/>
<circle cx="58.05" cy="47.04" r="3.33" fill="#c9a24a"/>
<circle cx="32.00" cy="62.08" r="3.33" fill="#c9a24a"/>
<circle cx="5.95" cy="47.04" r="3.33" fill="#c9a24a"/>
<circle cx="5.95" cy="16.96" r="3.33" fill="#c9a24a"/>
<rect x="17.28" y="26.24" width="29.44" height="13.44" rx="6.05" fill="#171921"/>
<rect x="22.27" y="29.89" width="1.79" height="6.14" rx="0.54" fill="#c9a24a"/>
<rect x="20.10" y="32.06" width="6.14" height="1.79" rx="0.54" fill="#c9a24a"/>
<circle cx="37.00" cy="30.04" r="1.79" fill="#c9a24a"/>
<circle cx="42.84" cy="30.04" r="1.79" fill="#c9a24a"/>
<circle cx="37.00" cy="35.88" r="1.79" fill="#c9a24a"/>
<circle cx="42.84" cy="35.88" r="1.79" fill="#c9a24a"/>
</g>
<rect x="30.33" y="5.76" width="7.24" height="2.00" fill="#f4efe4"/>
<rect x="28.08" y="7.51" width="2.50" height="8.99" fill="#f4efe4"/>
<rect x="30.33" y="16.24" width="7.24" height="2.00" fill="#f4efe4"/>
<rect x="37.81" y="11.75" width="2.50" height="6.49" fill="#f4efe4"/>
<rect x="33.82" y="11.25" width="6.49" height="2.00" fill="#f4efe4"/>
<polygon points="39.56,18.24 42.06,18.24 44.68,5.76 42.43,5.76" fill="#f4efe4"/>
<polygon points="46.92,5.76 49.17,5.76 51.79,18.24 49.30,18.24" fill="#f4efe4"/>
<rect x="42.31" y="13.00" width="4.74" height="2.00" fill="#f4efe4"/>
<rect x="51.29" y="5.76" width="2.25" height="12.48" fill="#f4efe4"/>
<rect x="61.03" y="5.76" width="2.25" height="12.48" fill="#f4efe4"/>
<polygon points="53.29,5.76 55.54,5.76 57.28,12.25 55.04,12.25" fill="#f4efe4"/>
<polygon points="61.28,5.76 59.03,5.76 57.28,12.25 59.53,12.25" fill="#f4efe4"/>
<rect x="64.77" y="5.76" width="2.50" height="12.48" fill="#f4efe4"/>
<rect x="67.02" y="5.76" width="6.49" height="2.00" fill="#f4efe4"/>
<rect x="67.02" y="11.00" width="5.24" height="2.00" fill="#f4efe4"/>
<rect x="67.02" y="16.24" width="6.49" height="2.00" fill="#f4efe4"/>
<rect x="80.50" y="5.76" width="2.25" height="12.48" fill="#f4efe4"/>
<rect x="90.23" y="5.76" width="2.25" height="12.48" fill="#f4efe4"/>
<polygon points="82.49,5.76 84.74,5.76 86.49,12.25 84.24,12.25" fill="#f4efe4"/>
<polygon points="90.48,5.76 88.23,5.76 86.49,12.25 88.73,12.25" fill="#f4efe4"/>
<polygon points="93.97,18.24 96.47,18.24 99.09,5.76 96.84,5.76" fill="#f4efe4"/>
<polygon points="101.34,5.76 103.58,5.76 106.20,18.24 103.71,18.24" fill="#f4efe4"/>
<rect x="96.72" y="13.00" width="4.74" height="2.00" fill="#f4efe4"/>
<rect x="107.70" y="5.76" width="6.49" height="2.00" fill="#f4efe4"/>
<rect x="105.71" y="7.51" width="2.50" height="4.49" fill="#f4efe4"/>
<rect x="107.70" y="11.00" width="4.99" height="2.00" fill="#f4efe4"/>
<rect x="112.20" y="12.00" width="2.50" height="4.49" fill="#f4efe4"/>
<rect x="106.20" y="16.24" width="6.49" height="2.00" fill="#f4efe4"/>
<rect x="116.19" y="5.76" width="8.99" height="2.00" fill="#f4efe4"/>
<rect x="119.43" y="7.51" width="2.50" height="10.73" fill="#f4efe4"/>
<rect x="126.67" y="5.76" width="2.50" height="12.48" fill="#f4efe4"/>
<rect x="128.92" y="5.76" width="6.49" height="2.00" fill="#f4efe4"/>
<rect x="128.92" y="11.00" width="5.24" height="2.00" fill="#f4efe4"/>
<rect x="128.92" y="16.24" width="6.49" height="2.00" fill="#f4efe4"/>
<rect x="136.91" y="5.76" width="2.50" height="12.48" fill="#f4efe4"/>
<rect x="139.15" y="5.76" width="5.24" height="2.00" fill="#f4efe4"/>
<rect x="143.40" y="7.51" width="2.50" height="4.49" fill="#f4efe4"/>
<rect x="139.15" y="11.00" width="5.24" height="2.00" fill="#f4efe4"/>
<polygon points="141.90,12.75 144.14,12.75 147.64,18.24 144.89,18.24" fill="#f4efe4"/>
</svg>
