<!--! Game Master Engine brand asset. Game Master Engine is built upon the Godot Engine core.--><svg xmlns="http://www.w3.org/2000/svg" xmlns:xlink="http://www.w3.org/1999/xlink" width="1024" height="1024" viewBox="0 0 512 512"><defs><linearGradient id="b" x1="0" x2="0" y1="0" y2="512" gradientUnits="userSpaceOnUse"><stop offset="0" stop-color="#ffefb8"/><stop offset=".38" stop-color="#f2c14e"/><stop offset=".72" stop-color="#d9a62f"/><stop offset="1" stop-color="#b4831f"/></linearGradient><linearGradient id="c" x1="0" x2="0" y1="0" y2="512" gradientUnits="userSpaceOnUse"><stop offset="0" stop-color="#ffefb8"/><stop offset=".55" stop-color="#d9a62f"/><stop offset="1" stop-color="#7e5612"/></linearGradient><linearGradient id="a" x1="0" x2="0" y1="0" y2="512" gradientUnits="userSpaceOnUse"><stop offset="0" stop-color="#33425f"/><stop offset="1" stop-color="#0a0e1b"/></linearGradient></defs><rect width="460" height="460" x="26" y="26" fill="url(#a)" rx="112"/><rect width="460" height="460" x="26" y="26" fill="none" stroke="url(#b)" stroke-width="10" rx="112"/><rect width="428" height="428" x="42" y="42" fill="none" stroke="#fff" stroke-opacity=".1" stroke-width="2.5" rx="96"/><path fill="url(#c)" d="M464.0 264.0 L344.9 287.8 L436.1 368.0 L321.1 329.1 L360.0 444.1 L279.8 352.9 L256.0 472.0 L232.2 352.9 L152.0 444.1 L190.9 329.1 L75.9 368.0 L167.1 287.8 L48.0 264.0 L167.1 240.2 L75.9 160.0 L190.9 198.9 L152.0 83.9 L232.2 175.1 L256.0 56.0 L279.8 175.1 L360.0 83.9 L321.1 198.9 L436.1 160.0 L344.9 240.2 Z" opacity=".11"/><path fill="url(#b)" stroke="#6e4a10" stroke-linejoin="round" stroke-width="6" d="M196 120 Q194 120 194 123 L194 166 Q194 172 200 172 L312 172 Q318 172 318 166 L318 123 Q318 120 316 120 Z"/><path fill="url(#b)" stroke="#6e4a10" stroke-linejoin="round" stroke-width="6" d="M206 122 L222 78 L238 120 Z"/><path fill="url(#b)" stroke="#6e4a10" stroke-linejoin="round" stroke-width="6" d="M240 120 L256 58 L272 120 Z"/><path fill="url(#b)" stroke="#6e4a10" stroke-linejoin="round" stroke-width="6" d="M274 122 L290 78 L306 120 Z"/><circle cx="222" cy="72" r="9" fill="url(#b)" stroke="#6e4a10" stroke-width="4"/><circle cx="256" cy="52" r="9" fill="url(#b)" stroke="#6e4a10" stroke-width="4"/><circle cx="290" cy="72" r="9" fill="url(#b)" stroke="#6e4a10" stroke-width="4"/><path fill="url(#a)" stroke="#0a0d16" stroke-linejoin="round" stroke-width="18" d="M150 200 Q150 168 182 168 L330 168 Q362 168 362 200 L362 282 C362 344 314 388 256 412 C198 388 150 344 150 282 Z"/><path fill="url(#a)" stroke="url(#b)" stroke-linejoin="round" stroke-width="14" d="M150 200 Q150 168 182 168 L330 168 Q362 168 362 200 L362 282 C362 344 314 388 256 412 C198 388 150 344 150 282 Z"/><path fill="none" stroke="#fff" stroke-opacity=".14" stroke-width="3" d="M166 210 Q166 184 190 184 L322 184 Q346 184 346 210 L346 282 C346 336 306 374 256 396 C206 374 166 336 166 282 Z"/><g fill="url(#b)"><rect width="120.96" height="58.8" x="195.52" y="242.72" rx="29.4"/><circle cx="219.88" cy="291.44" r="26.04"/><circle cx="292.12" cy="291.44" r="26.04"/></g><g fill="#0a0d16"><rect width="23.52" height="8.4" x="218.2" y="264.56" rx="4.2"/><rect width="8.4" height="23.52" x="225.76" y="257" rx="4.2"/></g><g fill="#0a0d16"><circle cx="298.84" cy="272.96" r="5.88"/><circle cx="287.08" cy="262.88" r="5.88"/><circle cx="275.32" cy="272.96" r="5.88"/><circle cx="287.08" cy="283.04" r="5.88"/></g><rect width="496" height="496" x="8" y="8" fill="none" stroke="#fff" stroke-opacity=".92" stroke-width="14" rx="104"/></svg>
